<svg width="199" height="126" viewBox="0 0 199 126" fill="none" xmlns="http://www.w3.org/2000/svg">
<g id="moon">
<path id="cloud1" d="M181.749 27.3656C182.426 25.8609 182.805 24.2156 182.805 22.5C182.805 15.0469 175.707 9 166.957 9C163.705 9 160.668 9.84375 158.159 11.2781C153.586 4.52812 145.051 0 135.261 0C120.668 0 108.848 10.0687 108.848 22.5C108.848 22.8797 108.865 23.2594 108.881 23.6391C99.6364 26.4094 93 33.9188 93 42.75C93 53.9297 103.648 63 116.772 63H177.523C189.194 63 198.654 54.9422 198.654 45C198.654 36.2953 191.39 29.025 181.749 27.3656Z" fill="#CCCCCC"/>
<path id="the-moon" d="M97.1217 94C110.336 94 122.404 87.9657 130.4 78.0779C131.583 76.6152 130.293 74.4783 128.465 74.8277C107.68 78.8008 88.5925 62.8052 88.5925 41.7456C88.5925 29.6146 95.0625 18.4592 105.578 12.4529C107.199 11.527 106.791 9.06039 104.949 8.71891C102.367 8.24102 99.7472 8.00039 97.1217 8C73.474 8 54.2808 27.2343 54.2808 51C54.2808 74.7355 73.4439 94 97.1217 94Z" fill="#FFF500" fill-opacity="0.73"/>
<path id="cloud2" d="M88.7489 90.3656C89.4258 88.8609 89.8055 87.2156 89.8055 85.5C89.8055 78.0469 82.7069 72 73.9575 72C70.7053 72 67.6678 72.8437 65.1585 74.2781C60.5857 67.5281 52.0509 63 42.2614 63C27.668 63 15.848 73.0687 15.848 85.5C15.848 85.8797 15.8645 86.2594 15.881 86.6391C6.63636 89.4094 0 96.9188 0 105.75C0 116.93 10.6479 126 23.772 126H84.5228C96.1942 126 105.654 117.942 105.654 108C105.654 99.2953 98.3898 92.025 88.7489 90.3656Z" fill="#CCCCCC"/>
</g>
</svg>
