<svg width="130" height="124" viewBox="0 0 130 124" fill="none" xmlns="http://www.w3.org/2000/svg">
<path d="M65 38.75C51.5684 38.75 40.625 49.1883 40.625 62C40.625 74.8117 51.5684 85.25 65 85.25C78.4316 85.25 89.375 74.8117 89.375 62C89.375 49.1883 78.4316 38.75 65 38.75ZM127.562 58.2461L103.518 46.7906L112.023 22.475C113.166 19.1813 109.891 16.057 106.463 17.1711L80.9707 25.2844L68.9355 2.325C67.3105 -0.775 62.6895 -0.775 61.0645 2.325L49.0547 25.2602L23.5371 17.1469C20.084 16.057 16.8086 19.1812 17.9766 22.4508L26.4824 46.7664L2.4375 58.2461C-0.8125 59.7961 -0.8125 64.2039 2.4375 65.7539L26.4824 77.2094L17.9766 101.549C16.834 104.843 20.1094 107.967 23.5371 106.853L49.0293 98.7398L61.0391 121.675C62.6641 124.775 67.2852 124.775 68.9102 121.675L80.9199 98.7398L106.412 106.853C109.865 107.943 113.141 104.819 111.973 101.549L103.467 77.2336L127.512 65.7781C130.813 64.2039 130.812 59.7961 127.562 58.2461V58.2461ZM87.9785 83.918C75.3086 96.0031 54.6914 96.0031 42.0215 83.918C29.3516 71.8328 29.3516 52.1672 42.0215 40.082C54.6914 27.9969 75.3086 27.9969 87.9785 40.082C100.648 52.1672 100.648 71.8328 87.9785 83.918Z" fill="#FF0000"/>
<rect x="37" y="34" width="56" height="56" rx="28" fill="#F7511C"/>
</svg>
